<svg xmlns="http://www.w3.org/2000/svg" viewBox="0 0 64 64" role="img" aria-labelledby="title">
  <title>Chữ ký số Automation</title>
  <path
    fill="#1668b5"
    d="M32 3.5c8.8 6.2 17.2 9.5 26 10.5v16.2c0 14.8-8.7 25-26 31.3C14.7 55.2 6 45 6 30.2V14c8.8-1 17.2-4.3 26-10.5Z"
  />
  <path
    fill="#fff"
    d="M19.5 17h17.7L46 25.8v16.8c-3.4 4.1-8 7.3-14 10.1-6-2.8-10.6-6-14-10.1V18.5c0-.8.7-1.5 1.5-1.5Z"
  />
  <path fill="#1668b5" d="M37.2 17v8.8H46L37.2 17Z" />
  <path
    fill="none"
    stroke="#0f8f73"
    stroke-linecap="round"
    stroke-linejoin="round"
    stroke-width="5.5"
    d="m22.5 34.5 6.5 6.6 13-14"
  />
</svg>
